<svg xmlns="http://www.w3.org/2000/svg" xmlns:xlink="http://www.w3.org/1999/xlink" id="visual" viewBox="0 0 900 600" width="900" height="600" version="1.1" transform="matrix(-1, 0, 0, -1, 0, 0)"><rect x="0" y="0" width="900" height="600" fill="transparent"/><defs fill="#000000"><linearGradient id="grad1_0" x1="33.3%" y1="0%" x2="100%" y2="100%" fill="#000000"><stop offset="20%" stop-color="#bbe0e2" stop-opacity="1" fill="#000000"/><stop offset="80%" stop-color="#bbe0e2" stop-opacity="1" fill="#000000"/></linearGradient></defs><defs fill="#000000"><linearGradient id="grad1_1" x1="33.3%" y1="0%" x2="100%" y2="100%" fill="#000000"><stop offset="20%" stop-color="#bbe0e2" stop-opacity="1" fill="#000000"/><stop offset="80%" stop-color="#628a90" stop-opacity="1" fill="#000000"/></linearGradient></defs><defs fill="#000000"><linearGradient id="grad1_2" x1="33.3%" y1="0%" x2="100%" y2="100%" fill="#000000"><stop offset="20%" stop-color="transparent" stop-opacity="1" fill="#000000"/><stop offset="80%" stop-color="#628a90" stop-opacity="1" fill="#000000"/></linearGradient></defs><defs fill="#000000"><linearGradient id="grad2_0" x1="0%" y1="0%" x2="66.7%" y2="100%" fill="#000000"><stop offset="20%" stop-color="#bbe0e2" stop-opacity="1" fill="#000000"/><stop offset="80%" stop-color="#bbe0e2" stop-opacity="1" fill="#000000"/></linearGradient></defs><defs fill="#000000"><linearGradient id="grad2_1" x1="0%" y1="0%" x2="66.7%" y2="100%" fill="#000000"><stop offset="20%" stop-color="#628a90" stop-opacity="1" fill="#000000"/><stop offset="80%" stop-color="#bbe0e2" stop-opacity="1" fill="#000000"/></linearGradient></defs><defs fill="#000000"><linearGradient id="grad2_2" x1="0%" y1="0%" x2="66.7%" y2="100%" fill="#000000"><stop offset="20%" stop-color="#628a90" stop-opacity="1" fill="#000000"/><stop offset="80%" stop-color="transparent" stop-opacity="1" fill="#000000"/></linearGradient></defs><g transform="translate(900, 0)"><path d="M0 405.6C-42.5 374.3 -84.9 343.1 -135.9 328C-186.8 312.9 -246.2 314 -286.8 286.8C-327.4 259.6 -349.2 204.1 -365.9 151.5C-382.5 99 -394.1 49.5 -405.6 0L0 0Z" fill="#37626b"/><path d="M0 270.4C-28.3 249.6 -56.6 228.7 -90.6 218.7C-124.5 208.6 -164.1 209.4 -191.2 191.2C-218.3 173.1 -232.8 136 -243.9 101C-255 66 -262.7 33 -270.4 0L0 0Z" fill="#8db4b8"/><path d="M0 135.2C-14.2 124.8 -28.3 114.4 -45.3 109.3C-62.3 104.3 -82.1 104.7 -95.6 95.6C-109.1 86.5 -116.4 68 -122 50.5C-127.5 33 -131.4 16.5 -135.2 0L0 0Z" fill="#bbe0e2"/></g><g transform="translate(0, 600)"><path d="M0 -405.6C41.3 -371.8 82.6 -338 133.9 -323.4C185.3 -308.7 246.7 -313.3 286.8 -286.8C327 -260.4 345.9 -203 362.2 -150C378.4 -97 392 -48.5 405.6 0L0 0Z" fill="#37626b"/><path d="M0 -270.4C27.5 -247.9 55.1 -225.3 89.3 -215.6C123.5 -205.8 164.4 -208.8 191.2 -191.2C218 -173.6 230.6 -135.3 241.4 -100C252.3 -64.7 261.3 -32.3 270.4 0L0 0Z" fill="#8db4b8"/><path d="M0 -135.2C13.8 -123.9 27.5 -112.7 44.6 -107.8C61.8 -102.9 82.2 -104.4 95.6 -95.6C109 -86.8 115.3 -67.7 120.7 -50C126.1 -32.3 130.7 -16.2 135.2 0L0 0Z" fill="#bbe0e2"/></g></svg>