<svg xmlns="http://www.w3.org/2000/svg" xmlns:xlink="http://www.w3.org/1999/xlink" id="visual" viewBox="0 0 960 540" width="960" height="540" version="1.1"><rect x="0" y="0" width="960" height="540" fill="transparent"/><defs fill="#000000"><linearGradient id="grad1_0" x1="43.8%" y1="0%" x2="100%" y2="100%" fill="#000000"><stop offset="14.444444444444446%" stop-color="#bbe0e2" stop-opacity="1" fill="#000000"/><stop offset="85.55555555555554%" stop-color="#bbe0e2" stop-opacity="1" fill="#000000"/></linearGradient></defs><defs fill="#000000"><linearGradient id="grad1_1" x1="43.8%" y1="0%" x2="100%" y2="100%" fill="#000000"><stop offset="14.444444444444446%" stop-color="#bbe0e2" stop-opacity="1" fill="#000000"/><stop offset="85.55555555555554%" stop-color="#628a90" stop-opacity="1" fill="#000000"/></linearGradient></defs><defs fill="#000000"><linearGradient id="grad1_2" x1="43.8%" y1="0%" x2="100%" y2="100%" fill="#000000"><stop offset="14.444444444444446%" stop-color="transparent" stop-opacity="1" fill="#000000"/><stop offset="85.55555555555554%" stop-color="#628a90" stop-opacity="1" fill="#000000"/></linearGradient></defs><defs fill="#000000"><linearGradient id="grad2_0" x1="0%" y1="0%" x2="56.3%" y2="100%" fill="#000000"><stop offset="14.444444444444446%" stop-color="#bbe0e2" stop-opacity="1" fill="#000000"/><stop offset="85.55555555555554%" stop-color="#bbe0e2" stop-opacity="1" fill="#000000"/></linearGradient></defs><defs fill="#000000"><linearGradient id="grad2_1" x1="0%" y1="0%" x2="56.3%" y2="100%" fill="#000000"><stop offset="14.444444444444446%" stop-color="#628a90" stop-opacity="1" fill="#000000"/><stop offset="85.55555555555554%" stop-color="#bbe0e2" stop-opacity="1" fill="#000000"/></linearGradient></defs><defs fill="#000000"><linearGradient id="grad2_2" x1="0%" y1="0%" x2="56.3%" y2="100%" fill="#000000"><stop offset="14.444444444444446%" stop-color="#628a90" stop-opacity="1" fill="#000000"/><stop offset="85.55555555555554%" stop-color="transparent" stop-opacity="1" fill="#000000"/></linearGradient></defs><g transform="translate(960, 0)"><path d="M0 376C-64.6 361.8 -129.2 347.5 -182 315.2C-234.8 282.9 -275.9 232.6 -306.6 177C-337.3 121.4 -357.6 60.7 -378 0L0 0Z" fill="#37626b"/><path d="M0 250.7C-43.1 241.2 -86.1 231.7 -121.3 210.2C-156.5 188.6 -183.9 155 -204.4 118C-224.9 81 -238.4 40.5 -252 0L0 0Z" fill="#8db4b8"/><path d="M0 125.3C-21.5 120.6 -43.1 115.8 -60.7 105.1C-78.3 94.3 -92 77.5 -102.2 59C-112.4 40.5 -119.2 20.2 -126 0L0 0Z" fill="#bbe0e2"/></g><g transform="translate(0, 540)"><path d="M0 -378C67.2 -366.6 134.4 -355.1 185 -320.4C235.6 -285.7 269.4 -227.8 295.3 -170.5C321.2 -113.2 339.1 -56.6 357 0L0 0Z" fill="#37626b"/><path d="M0 -252C44.8 -244.4 89.6 -236.7 123.3 -213.6C157 -190.5 179.6 -151.9 196.9 -113.7C214.1 -75.5 226.1 -37.7 238 0L0 0Z" fill="#8db4b8"/><path d="M0 -126C22.4 -122.2 44.8 -118.4 61.7 -106.8C78.5 -95.2 89.8 -75.9 98.4 -56.8C107.1 -37.7 113 -18.9 119 0L0 0Z" fill="#bbe0e2"/></g></svg>