<svg xmlns="http://www.w3.org/2000/svg" xmlns:xlink="http://www.w3.org/1999/xlink" id="visual" viewBox="0 0 540 960" width="540" height="960" version="1.1"><rect x="0" y="0" width="540" height="960" fill="transparent"/><defs fill="#000000"><linearGradient id="grad1_0" x1="0%" y1="0%" x2="100%" y2="100%" fill="#000000"><stop offset="30%" stop-color="#bbe0e2" stop-opacity="1" fill="#000000"/><stop offset="70%" stop-color="#bbe0e2" stop-opacity="1" fill="#000000"/></linearGradient></defs><defs fill="#000000"><linearGradient id="grad1_1" x1="0%" y1="0%" x2="100%" y2="100%" fill="#000000"><stop offset="30%" stop-color="#bbe0e2" stop-opacity="1" fill="#000000"/><stop offset="70%" stop-color="#628a90" stop-opacity="1" fill="#000000"/></linearGradient></defs><defs fill="#000000"><linearGradient id="grad1_2" x1="0%" y1="0%" x2="100%" y2="100%" fill="#000000"><stop offset="30%" stop-color="transparent" stop-opacity="1" fill="#000000"/><stop offset="70%" stop-color="#628a90" stop-opacity="1" fill="#000000"/></linearGradient></defs><defs fill="#000000"><linearGradient id="grad2_0" x1="0%" y1="0%" x2="100%" y2="100%" fill="#000000"><stop offset="30%" stop-color="#bbe0e2" stop-opacity="1" fill="#000000"/><stop offset="70%" stop-color="#bbe0e2" stop-opacity="1" fill="#000000"/></linearGradient></defs><defs fill="#000000"><linearGradient id="grad2_1" x1="0%" y1="0%" x2="100%" y2="100%" fill="#000000"><stop offset="30%" stop-color="#628a90" stop-opacity="1" fill="#000000"/><stop offset="70%" stop-color="#bbe0e2" stop-opacity="1" fill="#000000"/></linearGradient></defs><defs fill="#000000"><linearGradient id="grad2_2" x1="0%" y1="0%" x2="100%" y2="100%" fill="#000000"><stop offset="30%" stop-color="#628a90" stop-opacity="1" fill="#000000"/><stop offset="70%" stop-color="transparent" stop-opacity="1" fill="#000000"/></linearGradient></defs><g transform="translate(540, 0)"><path d="M0 378C-65.6 364.3 -131.1 350.5 -182.5 316.1C-233.9 281.7 -271.1 226.6 -295.3 170.5C-319.5 114.4 -330.8 57.2 -342 0L0 0Z" fill="#37626b"/><path d="M0 252C-43.7 242.8 -87.4 233.7 -121.7 210.7C-155.9 187.8 -180.7 151.1 -196.9 113.7C-213 76.2 -220.5 38.1 -228 0L0 0Z" fill="#8db4b8"/><path d="M0 126C-21.9 121.4 -43.7 116.8 -60.8 105.4C-78 93.9 -90.4 75.5 -98.4 56.8C-106.5 38.1 -110.3 19.1 -114 0L0 0Z" fill="#bbe0e2"/></g><g transform="translate(0, 960)"><path d="M0 -367C67.1 -362.5 134.2 -358 189 -327.4C243.8 -296.7 286.4 -239.9 313.5 -181C340.6 -122.1 352.3 -61 364 0L0 0Z" fill="#37626b"/><path d="M0 -244.7C44.7 -241.7 89.5 -238.7 126 -218.2C162.5 -197.8 190.9 -159.9 209 -120.7C227.1 -81.4 234.9 -40.7 242.7 0L0 0Z" fill="#8db4b8"/><path d="M0 -122.3C22.4 -120.8 44.7 -119.3 63 -109.1C81.3 -98.9 95.5 -80 104.5 -60.3C113.5 -40.7 117.4 -20.3 121.3 0L0 0Z" fill="#bbe0e2"/></g></svg>