<svg id="visual" viewBox="0 0 900 600" width="900" height="600" xmlns="http://www.w3.org/2000/svg" xmlns:xlink="http://www.w3.org/1999/xlink" version="1.1"><path d="M0 364L25 366.5C50 369 100 374 150 382.7C200 391.3 250 403.7 300 405C350 406.3 400 396.7 450 388.5C500 380.3 550 373.7 600 380.2C650 386.7 700 406.3 750 410.3C800 414.3 850 402.7 875 396.8L900 391L900 601L875 601C850 601 800 601 750 601C700 601 650 601 600 601C550 601 500 601 450 601C400 601 350 601 300 601C250 601 200 601 150 601C100 601 50 601 25 601L0 601Z" fill="#d1eaeb"></path><path d="M0 468L25 467.5C50 467 100 466 150 458.8C200 451.7 250 438.3 300 435.3C350 432.3 400 439.7 450 438.3C500 437 550 427 600 424.8C650 422.7 700 428.3 750 433.3C800 438.3 850 442.7 875 444.8L900 447L900 601L875 601C850 601 800 601 750 601C700 601 650 601 600 601C550 601 500 601 450 601C400 601 350 601 300 601C250 601 200 601 150 601C100 601 50 601 25 601L0 601Z" fill="#c6e5e6"></path><path d="M0 468L25 474.5C50 481 100 494 150 496.3C200 498.7 250 490.3 300 481.5C350 472.7 400 463.3 450 467.5C500 471.7 550 489.3 600 490.2C650 491 700 475 750 471.7C800 468.3 850 477.7 875 482.3L900 487L900 601L875 601C850 601 800 601 750 601C700 601 650 601 600 601C550 601 500 601 450 601C400 601 350 601 300 601C250 601 200 601 150 601C100 601 50 601 25 601L0 601Z" fill="#bbe0e2"></path><path d="M0 500L25 506.5C50 513 100 526 150 525.5C200 525 250 511 300 504.7C350 498.3 400 499.7 450 497.7C500 495.7 550 490.3 600 496.8C650 503.3 700 521.7 750 525.2C800 528.7 850 517.3 875 511.7L900 506L900 601L875 601C850 601 800 601 750 601C700 601 650 601 600 601C550 601 500 601 450 601C400 601 350 601 300 601C250 601 200 601 150 601C100 601 50 601 25 601L0 601Z" fill="#b2dbde"></path><path d="M0 541L25 546C50 551 100 561 150 564.5C200 568 250 565 300 559.3C350 553.7 400 545.3 450 543.3C500 541.3 550 545.7 600 544.2C650 542.7 700 535.3 750 534.8C800 534.3 850 540.7 875 543.8L900 547L900 601L875 601C850 601 800 601 750 601C700 601 650 601 600 601C550 601 500 601 450 601C400 601 350 601 300 601C250 601 200 601 150 601C100 601 50 601 25 601L0 601Z" fill="#a8d7da"></path></svg>