<svg width="46" height="32" viewBox="0 0 46 32" fill="none" xmlns="http://www.w3.org/2000/svg">
<path id="Vector" d="M44.8976 26.3275C43.1803 26.1337 41.5349 25.4796 40.2729 24.4783C39.1466 23.582 37.5412 23.5659 36.4229 24.4783C33.3957 26.9331 27.8603 26.9331 24.7852 24.3572C23.7068 23.4528 22.1493 23.6224 21.055 24.5026C18.0198 26.9331 12.5164 26.925 9.45718 24.3653C8.37887 23.4609 6.79735 23.6466 5.69507 24.5268C4.45701 25.5119 2.81958 26.1498 1.0863 26.3356C0.455286 26.4002 0 26.9654 0 27.6033V30.2034C0 30.9382 0.607049 31.56 1.33391 31.4954C3.6343 31.2935 5.81489 30.5748 7.67597 29.404C12.1889 32.1979 18.6188 32.1575 23.0119 29.404C27.5249 32.1979 33.9548 32.1575 38.3479 29.404C40.209 30.5506 42.4135 31.2854 44.666 31.4873C45.3928 31.5519 45.9999 30.9301 45.9999 30.1953V27.6437C46.0079 26.9977 45.5446 26.4002 44.8976 26.3275ZM44.8976 14.6997C43.1803 14.5059 41.5349 13.8519 40.2729 12.8506C39.1466 11.9543 37.5412 11.9381 36.4229 12.8506C33.3957 15.3053 27.8603 15.3053 24.7852 12.7295C23.7068 11.8251 22.1493 11.9947 21.055 12.8748C18.0198 15.3053 12.5164 15.2973 9.45718 12.7375C8.37887 11.8332 6.79735 12.0189 5.69507 12.899C4.45701 13.8842 2.81958 14.5221 1.0863 14.7078C0.455286 14.7724 0 15.3376 0 15.9756V18.5756C0 19.3105 0.607049 19.9322 1.33391 19.8676C3.6343 19.6657 5.81489 18.9471 7.67597 17.7762C12.1889 20.5701 18.6188 20.5298 23.0119 17.7762C27.5249 20.5701 33.9548 20.5298 38.3479 17.7762C40.209 18.9229 42.4135 19.6577 44.666 19.8595C45.3928 19.9241 45.9999 19.3024 45.9999 18.5676V16.0159C46.0079 15.3699 45.5446 14.7724 44.8976 14.6997ZM44.8976 3.07197C43.1803 2.8701 41.5349 2.22411 40.2729 1.22283C39.1466 0.326523 37.5412 0.310374 36.4229 1.22283C33.3957 3.67758 27.8603 3.67758 24.7852 1.10171C23.7068 0.197326 22.1493 0.366898 21.055 1.24705C18.0198 3.67758 12.5164 3.6695 9.45718 1.10978C8.37887 0.205401 6.79735 0.391122 5.69507 1.27128C4.45701 2.25641 2.81958 2.89432 1.0863 3.08004C0.455286 3.14464 0 3.70988 0 4.34779V6.94789C0 7.6827 0.607049 8.30446 1.33391 8.23986C3.6343 8.03799 5.81489 7.31933 7.67597 6.14848C12.1889 8.94237 18.6188 8.902 23.0119 6.14848C27.5249 8.94237 33.9548 8.902 38.3479 6.14848C40.209 7.2951 42.4135 8.02991 44.666 8.23179C45.3928 8.29638 45.9999 7.67462 45.9999 6.93981V4.38816C46.0079 3.74218 45.5446 3.14464 44.8976 3.07197Z" fill="#073D47"/>
</svg>
